<svg xmlns="http://www.w3.org/2000/svg" viewBox="0 0 900 204" width="900" height="204" enable-background="new 0 0 900 204">
    <path d="M227.3 57.9c5.6-31.9-15.7-57.9-47.5-57.9h-144l-10.2 57.9h144l-3.4 19.3h-144l-22.2 126.8h57.6l12.1-69h86.4c31.8 0 62.2-26 67.8-57.9l3.4-19.2zM396.6 77.8h-153.1l-9 48.4h153zM458.2 0h-201.6l-10.2 58h201.7zM220.8 204h201.7l10.1-58h-201.6zM535 0c-31.4 0-61.7 26.5-67.8 58l-1.7 9.7h.1c-3.9 30.8 16.7 57 47.6 57h86.4l-3.8 21.3h-144l-10.2 58h144c31.8 0 62.2-26 67.8-58l3.7-21.3c5.6-32-15.7-58-47.5-58h-86.4l1.5-8.7h192.1l-25.6 146h57.8l25.6-146h57.6c31.8 0 62.2-26 67.8-58h-365z"/>
</svg>
